<svg width="408" height="100" viewBox="0 0 408 100" fill="none" xmlns="http://www.w3.org/2000/svg">
<path d="M56.392 58.184C53.5792 55.3712 51.9992 51.556 51.9992 47.578C51.9992 43.6 53.5792 39.785 56.392 36.972M77.608 36.972C80.4208 39.785 82.0008 43.6 82.0008 47.578C82.0008 51.556 80.4208 55.3712 77.608 58.184M47.908 66.672C45.4008 64.1648 43.412 61.1884 42.0552 57.9124C40.698 54.6368 39.9998 51.1256 39.9998 47.58C39.9998 44.0344 40.698 40.5232 42.0552 37.2475C43.412 33.9717 45.4008 30.9952 47.908 28.488M86.092 28.488C88.5992 30.9952 90.588 33.9717 91.9448 37.2475C93.302 40.5232 94.0004 44.0344 94.0004 47.58C94.0004 51.1256 93.302 54.6368 91.9448 57.9124C90.588 61.1884 88.5992 64.1648 86.092 66.672M39.424 75.156C24.192 59.924 24.192 35.236 39.424 20M94.576 20C109.808 35.232 109.808 59.924 94.576 75.16M67 47.58H67.032V47.608H67V47.58ZM68.5 47.58C68.5 47.978 68.342 48.3592 68.0608 48.6408C67.7792 48.922 67.398 49.08 67 49.08C66.602 49.08 66.2208 48.922 65.9392 48.6408C65.658 48.3592 65.5 47.978 65.5 47.58C65.5 47.182 65.658 46.8008 65.9392 46.5192C66.2208 46.238 66.602 46.08 67 46.08C67.398 46.08 67.7792 46.238 68.0608 46.5192C68.342 46.8008 68.5 47.182 68.5 47.58Z" stroke="#4F46E5" stroke-width="1.5" stroke-linecap="round" stroke-linejoin="round"/>
<path d="M150.415 38.6874C150.256 37.1988 149.585 36.0397 148.404 35.2102C147.233 34.3806 145.71 33.9658 143.835 33.9658C142.517 33.9658 141.386 34.1647 140.443 34.5624C139.5 34.9602 138.778 35.4999 138.278 36.1817C137.778 36.8636 137.523 37.642 137.511 38.517C137.511 39.2442 137.676 39.8749 138.006 40.4091C138.346 40.9431 138.807 41.3975 139.386 41.7727C139.966 42.1363 140.608 42.4431 141.312 42.6931C142.017 42.9431 142.727 43.1535 143.443 43.3239L146.716 44.1419C148.034 44.4487 149.301 44.8635 150.517 45.3863C151.744 45.9091 152.841 46.5679 153.807 47.3635C154.784 48.1591 155.557 49.1191 156.125 50.2443C156.693 51.3691 156.977 52.6875 156.977 54.1987C156.977 56.2443 156.454 58.0455 155.409 59.6023C154.364 61.1475 152.852 62.3579 150.875 63.2327C148.909 64.0963 146.528 64.5283 143.733 64.5283C141.017 64.5283 138.659 64.1079 136.659 63.2671C134.67 62.4259 133.114 61.1987 131.989 59.5851C130.875 57.9715 130.273 56.0055 130.182 53.6875H136.404C136.494 54.9035 136.869 55.9147 137.528 56.7215C138.188 57.5283 139.046 58.1307 140.102 58.5283C141.17 58.9259 142.364 59.1247 143.682 59.1247C145.057 59.1247 146.261 58.9203 147.296 58.5111C148.341 58.0907 149.159 57.5111 149.75 56.7727C150.341 56.0227 150.642 55.1475 150.654 54.1475C150.642 53.2387 150.375 52.4887 149.852 51.8975C149.33 51.2955 148.596 50.7955 147.654 50.3975C146.722 49.9887 145.631 49.6247 144.381 49.3067L140.409 48.2839C137.534 47.5455 135.261 46.4259 133.591 44.9259C131.932 43.4147 131.102 41.4091 131.102 38.909C131.102 36.8522 131.659 35.051 132.773 33.5056C133.898 31.9602 135.426 30.7613 137.358 29.909C139.29 29.0454 141.477 28.6136 143.92 28.6136C146.398 28.6136 148.568 29.0454 150.432 29.909C152.307 30.7613 153.778 31.9488 154.846 33.4715C155.915 34.9829 156.466 36.7215 156.5 38.6874H150.415ZM162.342 63.9999V37.8181H168.513V63.9999H162.342ZM165.445 34.1022C164.467 34.1022 163.626 33.7783 162.922 33.1306C162.217 32.4715 161.865 31.6817 161.865 30.7613C161.865 29.8295 162.217 29.0397 162.922 28.392C163.626 27.7329 164.467 27.4033 165.445 27.4033C166.433 27.4033 167.274 27.7329 167.967 28.392C168.672 29.0397 169.024 29.8295 169.024 30.7613C169.024 31.6817 168.672 32.4715 167.967 33.1306C167.274 33.7783 166.433 34.1022 165.445 34.1022ZM186.244 74.3635C184.028 74.3635 182.125 74.0623 180.534 73.4603C178.943 72.8691 177.665 72.0739 176.699 71.0739C175.733 70.0739 175.062 68.9659 174.688 67.7499L180.244 66.4035C180.494 66.9147 180.858 67.4203 181.335 67.9203C181.812 68.4319 182.454 68.8523 183.261 69.1819C184.08 69.5227 185.108 69.6931 186.346 69.6931C188.096 69.6931 189.546 69.2671 190.693 68.4147C191.841 67.5739 192.415 66.1875 192.415 64.2555V59.2955H192.108C191.79 59.9319 191.324 60.5851 190.71 61.2555C190.108 61.9259 189.307 62.4887 188.307 62.9431C187.318 63.3975 186.074 63.6247 184.574 63.6247C182.562 63.6247 180.739 63.1535 179.102 62.2103C177.477 61.2555 176.182 59.8351 175.216 57.9487C174.261 56.0511 173.784 53.6759 173.784 50.8239C173.784 47.9487 174.261 45.5227 175.216 43.5455C176.182 41.5567 177.483 40.0511 179.119 39.0283C180.756 37.9942 182.58 37.4772 184.591 37.4772C186.125 37.4772 187.386 37.7386 188.375 38.2613C189.375 38.7726 190.17 39.392 190.761 40.1191C191.352 40.8351 191.801 41.5111 192.108 42.1475H192.449V37.8181H198.534V64.4259C198.534 66.6647 198 68.5171 196.932 69.9827C195.864 71.4487 194.404 72.5455 192.551 73.2727C190.699 73.9999 188.596 74.3635 186.244 74.3635ZM186.296 58.7839C187.602 58.7839 188.716 58.4659 189.636 57.8295C190.557 57.1931 191.256 56.2783 191.733 55.0851C192.21 53.8919 192.449 52.4603 192.449 50.7895C192.449 49.1419 192.21 47.6987 191.733 46.4603C191.267 45.2215 190.574 44.2611 189.654 43.5795C188.744 42.8863 187.625 42.5395 186.296 42.5395C184.92 42.5395 183.773 42.8975 182.852 43.6135C181.932 44.3295 181.239 45.3123 180.773 46.5623C180.307 47.8011 180.074 49.2103 180.074 50.7895C180.074 52.3919 180.307 53.7955 180.773 54.9999C181.25 56.1931 181.949 57.1247 182.869 57.7955C183.801 58.4543 184.943 58.7839 186.296 58.7839ZM211.028 48.6591V63.9999H204.858V37.8181H210.756V42.2671H211.062C211.665 40.8011 212.625 39.6363 213.943 38.7726C215.273 37.909 216.915 37.4772 218.869 37.4772C220.676 37.4772 222.25 37.8636 223.591 38.6363C224.943 39.409 225.989 40.5283 226.727 41.9943C227.477 43.4603 227.846 45.2387 227.835 47.3295V63.9999H221.665V48.2839C221.665 46.5339 221.21 45.1647 220.301 44.1759C219.404 43.1875 218.159 42.6931 216.568 42.6931C215.489 42.6931 214.528 42.9319 213.688 43.4091C212.858 43.8747 212.204 44.5511 211.727 45.4375C211.261 46.3239 211.028 47.3975 211.028 48.6591ZM241.642 64.5283C239.983 64.5283 238.489 64.2327 237.159 63.6419C235.841 63.0395 234.796 62.1535 234.023 60.9827C233.261 59.8123 232.881 58.3691 232.881 56.6535C232.881 55.1759 233.154 53.9543 233.699 52.9887C234.244 52.0227 234.989 51.2499 235.932 50.6703C236.875 50.0907 237.938 49.6535 239.119 49.3579C240.312 49.0511 241.546 48.8295 242.818 48.6931C244.352 48.5339 245.596 48.3919 246.551 48.2671C247.506 48.1307 248.199 47.9259 248.631 47.6535C249.074 47.3691 249.296 46.9319 249.296 46.3407V46.2387C249.296 44.9543 248.915 43.9603 248.154 43.2555C247.392 42.5511 246.296 42.1987 244.864 42.1987C243.352 42.1987 242.154 42.5283 241.267 43.1875C240.392 43.8463 239.801 44.6247 239.494 45.5227L233.733 44.7043C234.188 43.1135 234.938 41.7839 235.983 40.7159C237.028 39.6363 238.307 38.8295 239.818 38.2954C241.33 37.7499 243 37.4772 244.83 37.4772C246.091 37.4772 247.346 37.6249 248.596 37.9204C249.846 38.2158 250.989 38.7045 252.023 39.3863C253.057 40.0567 253.886 40.9715 254.511 42.1307C255.148 43.2895 255.466 44.7387 255.466 46.4771V63.9999H249.534V60.4035H249.33C248.954 61.1307 248.426 61.8123 247.744 62.4487C247.074 63.0739 246.227 63.5795 245.204 63.9659C244.193 64.3407 243.006 64.5283 241.642 64.5283ZM243.244 59.9943C244.483 59.9943 245.557 59.7499 246.466 59.2611C247.375 58.7611 248.074 58.1023 248.562 57.2839C249.062 56.4659 249.312 55.5739 249.312 54.6079V51.5227C249.119 51.6819 248.79 51.8295 248.324 51.9659C247.869 52.1023 247.358 52.2215 246.79 52.3239C246.222 52.4259 245.659 52.5171 245.102 52.5963C244.546 52.6759 244.062 52.7443 243.654 52.8011C242.733 52.9259 241.909 53.1307 241.182 53.4147C240.454 53.6987 239.881 54.0963 239.46 54.6079C239.04 55.1079 238.83 55.7555 238.83 56.5511C238.83 57.6875 239.244 58.5455 240.074 59.1247C240.904 59.7043 241.96 59.9943 243.244 59.9943ZM267.841 29.0908V63.9999H261.67V29.0908H267.841ZM294.879 44.7387L289.254 45.3523C289.095 44.7839 288.817 44.2499 288.419 43.7499C288.033 43.2499 287.51 42.8463 286.851 42.5395C286.192 42.2327 285.385 42.0795 284.43 42.0795C283.146 42.0795 282.067 42.3579 281.192 42.9147C280.328 43.4715 279.902 44.1931 279.913 45.0795C279.902 45.8407 280.18 46.4603 280.748 46.9375C281.328 47.4147 282.283 47.8067 283.612 48.1135L288.078 49.0679C290.555 49.6023 292.396 50.4487 293.601 51.6079C294.817 52.7671 295.43 54.2839 295.442 56.1591C295.43 57.8067 294.948 59.2611 293.993 60.5227C293.05 61.7727 291.737 62.7499 290.055 63.4543C288.374 64.1591 286.442 64.5111 284.26 64.5111C281.055 64.5111 278.476 63.8407 276.521 62.4999C274.567 61.1475 273.402 59.2671 273.027 56.8579L279.044 56.2783C279.317 57.4603 279.896 58.3523 280.783 58.9543C281.669 59.5567 282.822 59.8579 284.243 59.8579C285.709 59.8579 286.885 59.5567 287.771 58.9543C288.669 58.3523 289.118 57.6079 289.118 56.7215C289.118 55.9715 288.828 55.3523 288.248 54.8635C287.68 54.3747 286.794 53.9999 285.59 53.7387L281.124 52.8011C278.612 52.2783 276.754 51.3975 275.55 50.1591C274.345 48.9091 273.748 47.3295 273.76 45.4203C273.748 43.8067 274.186 42.4091 275.072 41.2271C275.97 40.0339 277.214 39.1136 278.805 38.4658C280.408 37.8067 282.254 37.4772 284.345 37.4772C287.413 37.4772 289.828 38.1306 291.59 39.4374C293.362 40.7443 294.459 42.5111 294.879 44.7387ZM305.286 63.9999H298.536L310.825 29.0908H318.632L330.939 63.9999H324.189L314.865 36.2499H314.592L305.286 63.9999ZM305.507 50.3123H323.916V55.3919H305.507V50.3123ZM335.537 63.9999V29.0908H348.628C351.31 29.0908 353.56 29.5908 355.378 30.5908C357.207 31.5908 358.588 32.9658 359.52 34.7158C360.463 36.4545 360.935 38.4317 360.935 40.6475C360.935 42.8863 360.463 44.8747 359.52 46.6135C358.577 48.3523 357.185 49.7215 355.344 50.7215C353.503 51.7103 351.236 52.2043 348.543 52.2043H339.866V47.0055H347.69C349.258 47.0055 350.543 46.7327 351.543 46.1875C352.543 45.6419 353.281 44.8919 353.758 43.9375C354.247 42.9827 354.492 41.8863 354.492 40.6475C354.492 39.409 354.247 38.3181 353.758 37.3749C353.281 36.4317 352.537 35.6988 351.526 35.176C350.526 34.642 349.236 34.3749 347.656 34.3749H341.861V63.9999H335.537ZM372.752 29.0908V63.9999H366.428V29.0908H372.752Z" fill="#4F46E5"/>
</svg>
