<svg width="1280" height="80" viewBox="0 0 1280 80" fill="none" xmlns="http://www.w3.org/2000/svg">
<path fill-rule="evenodd" clip-rule="evenodd" d="M-245 42.4164L-201.88 36.1525C-157.453 29.8885 -71.2133 17.3606 16.3333 14.2287C103.88 11.0967 190.12 17.3606 277.667 14.2287C365.213 11.0967 451.453 -1.43115 539 0.134827C626.547 1.70081 712.787 17.3606 800.333 17.3606C887.88 17.3606 974.12 1.70081 1061.67 4.83278C1149.21 7.96474 1235.45 29.8885 1279.88 40.8504L1323 51.8123V80H1279.88C1235.45 80 1149.21 80 1061.67 80C974.12 80 887.88 80 800.333 80C712.787 80 626.547 80 539 80C451.453 80 365.213 80 277.667 80C190.12 80 103.88 80 16.3333 80C-71.2133 80 -157.453 80 -201.88 80H-245V42.4164Z" fill="#FFD116"/>
</svg>
