<svg width="1280" height="163" viewBox="0 0 1280 163" fill="none" xmlns="http://www.w3.org/2000/svg">
<path fill-rule="evenodd" clip-rule="evenodd" d="M-184 76.5766L-140.88 89.3394C-96.4533 102.102 -10.2133 127.628 77.3333 134.009C164.88 140.39 251.12 127.628 338.667 134.009C426.213 140.39 512.453 165.916 600 162.725C687.547 159.535 773.787 127.628 861.333 127.628C948.88 127.628 1035.12 159.535 1122.67 153.153C1210.21 146.772 1296.45 102.102 1340.88 79.7673L1384 57.4325V0H1340.88C1296.45 0 1210.21 0 1122.67 0C1035.12 0 948.88 0 861.333 0C773.787 0 687.547 0 600 0C512.453 0 426.213 0 338.667 0C251.12 0 164.88 0 77.3333 0C-10.2133 0 -96.4533 0 -140.88 0H-184V76.5766Z" fill="#FFD116"/>
</svg>
