<svg width="40" height="40" viewBox="0 0 40 40" fill="none" xmlns="http://www.w3.org/2000/svg">
<circle cx="20" cy="20" r="19" fill="white" stroke="black" stroke-width="2"/>
<mask id="path-2-inside-1_0_1" fill="white">
<path d="M20.682 21.9659L28.9659 13.2839L20.2839 5.00005L12 13.6821L20.682 21.9659Z"/>
</mask>
<path d="M20.682 21.9659L22.129 23.3466L20.7484 24.7936L19.3014 23.4129L20.682 21.9659ZM20.682 21.9659L19.235 20.5853L27.5189 11.9033L28.9659 13.2839L30.4129 14.6646L22.129 23.3466L20.682 21.9659ZM12 13.6821L13.3806 12.2351L22.0627 20.5189L20.682 21.9659L19.3014 23.4129L10.6193 15.1291L12 13.6821Z" fill="black" mask="url(#path-2-inside-1_0_1)"/>
<mask id="path-4-inside-2_0_1" fill="white">
<path d="M20.682 19L28.9659 27.682L20.2839 35.9659L12 27.2839L20.682 19Z"/>
</mask>
<path d="M20.682 19L22.129 17.6194L20.7484 16.1724L19.3014 17.553L20.682 19ZM20.682 19L19.235 20.3806L27.5189 29.0627L28.9659 27.682L30.4129 26.3014L22.129 17.6194L20.682 19ZM12 27.2839L13.3806 28.7309L22.0627 20.447L20.682 19L19.3014 17.553L10.6193 25.8369L12 27.2839Z" fill="black" mask="url(#path-4-inside-2_0_1)"/>
</svg>
